<svg width="40" height="40" viewBox="0 0 40 40" fill="none" xmlns="http://www.w3.org/2000/svg">
  <!-- French Fries / Appetizer -->
  <!-- Fries Sticks -->
  <rect x="13" y="6" width="3" height="15" rx="1" transform="rotate(-6 13 6)" stroke="#fbbf24" stroke-width="1.3" fill="#fbbf24" fill-opacity="0.15"/>
  <rect x="18.5" y="4" width="3" height="17" rx="1" stroke="#fbbf24" stroke-width="1.3" fill="#fbbf24" fill-opacity="0.15"/>
  <rect x="24" y="7" width="3" height="14" rx="1" transform="rotate(8 24 7)" stroke="#fbbf24" stroke-width="1.3" fill="#fbbf24" fill-opacity="0.15"/>
  <rect x="9.5" y="10" width="3" height="11" rx="1" transform="rotate(-15 9.5 10)" stroke="#fbbf24" stroke-width="1.3" fill="#fbbf24" fill-opacity="0.15"/>
  <rect x="27.5" y="11" width="3" height="10" rx="1" transform="rotate(16 27.5 11)" stroke="#fbbf24" stroke-width="1.3" fill="#fbbf24" fill-opacity="0.15"/>
  <!-- Fries Carton Box -->
  <path d="M9 19C14 21 26 21 31 19L28 35H12L9 19Z" stroke="#e5e5e5" stroke-width="1.8" stroke-linejoin="round"/>
  <!-- Front cutout arc on carton -->
  <path d="M12 21C16 24 24 24 28 21" stroke="#e5e5e5" stroke-width="1.4" stroke-linecap="round"/>
  <!-- Emblem on box -->
  <circle cx="20" cy="28" r="3.2" stroke="#fbbf24" stroke-width="1.2"/>
  <circle cx="20" cy="28" r="1.2" fill="#fbbf24"/>
</svg>
